<?xml version="1.0" encoding="UTF-8"?>
<svg width="34px" height="34px" viewBox="0 0 34 34" version="1.1" xmlns="http://www.w3.org/2000/svg" xmlns:xlink="http://www.w3.org/1999/xlink">
    <!-- Generator: Sketch 53.1 (72631) - https://sketchapp.com -->
    <title>empty states/photo_small_white</title>
    <desc>Created with Sketch.</desc>
    <defs>
        <circle id="path-1" cx="17" cy="17" r="17"></circle>
    </defs>
    <g id="empty-states/photo_small_white" stroke="none" stroke-width="1" fill="none" fill-rule="evenodd">
        <circle id="Oval" cx="17" cy="17" r="17"></circle>
        <g id="photo-empty-state">
            <mask id="mask-2" fill="white">
                <use xlink:href="#path-1"></use>
            </mask>
            <use id="Mask" fill="#FFFFFF" xlink:href="#path-1"></use>
            <path d="M23.0275137,14.1666667 C23.7426477,12.2210011 24.0833333,10.721057 24.0833333,9.714395 C24.0833333,8.49548246 22.6489417,5.15669517 18.4488592,4.78658858 C15.6488042,4.53985086 13.9275292,5.00248409 13.2850342,6.17448827 C12.182389,6.21043811 11.4941068,6.79113612 11.2201875,7.9165823 C10.8977138,9.24152328 10.6785785,12.3659607 11.0728359,13.6941557 L12.0314927,13.409591 C11.7350566,12.4109415 11.8530447,9.54499691 12.191823,8.15306601 C12.3612887,7.45678597 12.6715498,7.19502121 13.3176202,7.1739572 C13.6709655,7.16243699 13.9919689,6.96520247 14.1619151,6.65519606 C14.5583124,5.93210978 15.9157994,5.56725314 18.3610805,5.78272858 C19.991127,5.92636646 21.2235048,6.57917713 22.0811086,7.58209083 C22.7149494,8.32332783 23.0833333,9.22579029 23.0833333,9.714395 C23.0833333,10.6045588 22.7514649,12.0190561 22.0889064,13.8216793 L23.0275137,14.1666667 Z M24.0833333,9.714395 C24.0833333,8.49548246 22.6489417,5.15669517 18.4488592,4.78658858 C15.6488042,4.53985086 13.9275292,5.00248409 13.2850342,6.17448827 C12.182389,6.21043811 11.4941068,6.79113612 11.2201875,7.9165823 C10.8977138,9.24152328 10.6785785,12.3659607 11.0728359,13.6941557 L12.0314927,13.409591 C11.7350566,12.4109415 11.8530447,9.54499691 12.191823,8.15306601 C12.3612887,7.45678597 12.6715498,7.19502121 13.3176202,7.1739572 C13.6709655,7.16243699 13.9919689,6.96520247 14.1619151,6.65519606 C14.5583124,5.93210978 15.9157994,5.56725314 18.3610805,5.78272858 C19.991127,5.92636646 21.2235048,6.57917713 22.0811086,7.58209083 C22.7149494,8.32332783 23.0833333,9.22579029 23.0833333,9.714395 C23.0833333,10.6045588 22.7514649,12.0190561 22.0889064,13.8216793 L23.0275137,14.1666667 C23.7426477,12.2210011 24.0833333,10.721057 24.0833333,9.714395 Z" id="Path-6" fill="#3F4245" fill-rule="nonzero" mask="url(#mask-2)"></path>
            <path d="M11.9673832,19.323159 C11.2985953,18.2542444 10.8611111,17.0046678 10.8611111,15.6695073 C10.8611111,13.6148038 11.3093384,11.9044708 11.7755141,10.7024542 C12.2156095,9.56768456 13.046563,7.90714547 13.7015748,8.71293527 C14.6502547,9.87999289 17.6451213,9.81515914 18.4975917,9.97505208 C23.4120137,10.8968218 23.1360763,11.7256853 23.1360763,15.6695073 C23.1360763,16.9338369 22.7437783,18.1214225 22.134259,19.1515288 C21.9610107,19.4443236 21.7702129,19.7243955 21.5658861,19.9898906 C21.5633569,20.2486101 21.5641799,20.4218411 21.5683552,20.5095836 C21.6558874,22.3490447 22.1818616,23.3905986 23.2744102,23.7534876 C23.1860549,23.7328088 23.0931064,23.7104466 22.9952496,23.6862233 C23.100743,23.6916099 23.2142524,23.7233452 23.3226779,23.7647233 C24.3453925,24.0014839 24.7367331,24.0084526 25.0146911,24.077796 C27.3302968,24.6554807 28.783087,25.7148563 29.2987281,27.2389789 C29.4390719,27.6538048 29.5099932,28.1030584 29.5099932,28.5863981 L28.5099932,29.5863981 C28.5099932,29.0913793 28.41287,27.6425653 28.2150765,27.2391475 C27.7191363,26.2276325 26.5902945,25.501518 24.7726353,25.0480584 C24.5983831,25.0045869 24.2211541,24.9481053 23.6528881,24.8812455 C22.5748883,26.0347704 20.2418976,27.6728683 17.2899805,27.6728683 C14.2854998,27.6728683 11.9221826,25.9759149 10.870683,24.8200987 C10.8767186,24.8189554 10.8763148,24.8129876 10.8706809,24.8029138 C10.3036683,24.9030656 9.89183365,24.9852426 9.64004148,25.0480584 C8.00069575,25.4570334 6.92164959,26.0877919 6.36188176,26.9496847 C6.05346254,27.4245678 5.9026836,29.9696176 5.9026836,30.5863981 L4.9026836,29.5863981 C4.9026836,29.0013712 5.00658548,27.4662814 5.21173163,26.9817346 C5.79879561,25.5951136 7.21497418,24.6224018 9.39798573,24.077796 C9.6849687,24.0062011 10.1915188,23.9133832 10.8067688,23.8054822 C12.4348869,23.4104137 12.6896196,22.275914 12.9660044,20.6200737 C12.6001065,20.2280694 12.2613936,19.7930719 11.9673832,19.323159 Z M13.6227172,19.8547212 C13.738151,19.9908507 13.8657948,20.121932 14.0056485,20.2479651 C15.0014121,21.2019886 16.1590721,21.8104287 16.9985937,21.8104287 C18.2533045,21.8104287 20.1965347,20.4626202 21.2736327,18.6422917 C21.8336757,17.6958019 22.1360763,16.6829072 22.1360763,15.6695073 C22.1360763,15.5007072 22.1364676,15.3587968 22.1374899,15.0918283 C22.1502196,11.7675744 22.1097542,11.711033 18.7164798,11.0357529 C18.587507,11.0100866 18.4532402,10.9841714 18.3132422,10.9579128 C18.2352668,10.9432874 18.0973993,10.927348 17.8772106,10.907846 C17.8627236,10.9065629 17.2142056,10.8527031 16.994388,10.8319059 C16.5957322,10.7941888 16.2474219,10.7523947 15.9108697,10.6986576 C14.8091647,10.5227489 13.9510639,10.2426726 13.33874,9.75244584 C13.1333354,10.074097 12.9095847,10.543882 12.7078525,11.0640411 C12.1799002,12.4253464 11.8611111,13.9875293 11.8611111,15.6695073 C11.8611111,16.737559 12.1972604,17.8052252 12.8151261,18.7927516 C13.0523556,19.1719124 13.3264825,19.5286017 13.6227172,19.8547212 Z M11.9489067,24.4893661 C11.8126642,24.3617823 11.6883854,24.234961 11.5782056,24.1114461 C11.4463628,23.9636464 11.3441829,23.8306132 11.2801973,23.7282667 C11.2614317,23.6982507 11.2621115,23.6998218 11.2723202,23.8001047 L10.8406071,23.8440529 L10.8360328,23.8035554 C11.0340648,23.7455161 11.1767321,23.7032839 11.2526924,23.6796758 C11.368474,23.6436914 11.7798375,23.9067322 11.9489067,24.1578764 C12.0307733,24.2794855 11.9005629,24.5120598 11.9489067,24.4893661 C12.2124692,24.7361783 12.5208035,24.9858438 12.8584495,25.219945 C14.166666,26.1269748 15.6963607,26.6728683 17.2899805,26.6728683 C18.8835998,26.6728683 20.4132938,26.1269745 21.7215105,25.219944 C22.0317843,25.0048207 22.3173063,24.7765543 22.5660799,24.5494365 C22.6203019,24.5754164 22.5977075,23.8210549 22.7707273,23.7288422 C22.8256922,23.6995481 22.8882089,23.6865914 22.9547638,23.6854915 L22.9104527,24.2111167 C22.8058673,24.3224082 22.6905751,24.4357785 22.5660799,24.5494365 C21.4204301,24.0005101 20.7777182,22.816463 20.6046886,21.0465431 C19.4275593,22.1448888 18.0572971,22.8104287 16.9985937,22.8104287 C16.0688542,22.8104287 14.8988367,22.2971562 13.8303531,21.4282345 C13.4871407,23.0727227 13.0016531,23.9951825 11.9489067,24.4893661 Z" id="Shape" fill="#3F4245" fill-rule="nonzero" mask="url(#mask-2)"></path>
        </g>
    </g>
</svg>