<?xml version="1.0" encoding="UTF-8"?>
<svg width="94px" height="94px" viewBox="0 0 94 94" version="1.1" xmlns="http://www.w3.org/2000/svg" xmlns:xlink="http://www.w3.org/1999/xlink">
    <!-- Generator: Sketch 53.1 (72631) - https://sketchapp.com -->
    <title>empty states/photo 94*94_without border_grey</title>
    <desc>Created with Sketch.</desc>
    <defs>
        <circle id="path-1" cx="47" cy="47" r="47"></circle>
    </defs>
    <g id="empty-states/photo-94*94_without-border_grey" stroke="none" stroke-width="1" fill="none" fill-rule="evenodd">
        <g id="photo-empty-state">
            <mask id="mask-2" fill="white">
                <use xlink:href="#path-1"></use>
            </mask>
            <use id="Mask" fill="#EDEFF5" xlink:href="#path-1"></use>
            <g id="Group-5" mask="url(#mask-2)">
                <g transform="translate(10.444444, 13.055556)" id="Group-6">
                    <g>
                        <path d="M56.6116226,53.5324094 C55.7766552,53.3479427 54.6884384,53.2823037 53.3229923,53.3396943 C33.5213007,53.0554668 21.750826,52.8972111 21.6825115,52.9075745 C20.8335073,53.0363689 20.010982,53.1774231 19.2149456,53.3307241 C5.66926605,55.9393571 -0.112031195,62.0293624 1.63215049,71.6913169 C1.69168349,72.021102 2.49524363,72.8466149 3.8023631,73.7487422 C5.45002616,74.8859005 7.70743873,76.0511205 10.4142981,77.1000153 C17.4316214,79.8191937 26.4793805,81.4444444 37.2083333,81.4444444 C47.937285,81.4444444 56.9850411,79.8191947 64.002364,77.1000177 C66.7092219,76.051124 68.9666339,74.8859053 70.6142981,73.748748 C71.9214175,72.8466222 72.7249798,72.0211103 72.7845142,71.6913282 C74.4671431,62.3703755 69.1019326,56.2918544 56.6116226,53.5324094 Z" id="Rectangle-32" stroke="#454F65" fill="#BBD2F6"></path>
                        <path d="M71.5763132,61.3740419 C72.0844794,62.1559372 72.4964286,62.9827478 72.8120135,63.8541695 C64.2412452,74.2317816 51.3009457,80.8674272 36.8084394,80.9437784 C36.3411531,80.9422198 35.8786296,80.9379345 35.420865,80.9310158 C21.812297,80.6085935 9.63552147,74.5019159 1.25447752,64.9749146 C1.50353489,64.0117091 1.86174649,63.0997383 2.3291116,62.2390052 C10.9006675,71.3433878 23.0642813,77.0277778 36.5555556,77.0277778 C50.4691451,77.0277778 62.9706542,70.9819426 71.5763132,61.3740419 Z" id="Combined-Shape" fill-opacity="0.150000006" fill="#454F65"></path>
                        <path d="M48.6795113,42.1455491 L26.0011286,42.3477836 C26.0217617,42.9246132 26.0126849,43.3305847 25.9710575,43.5824241 C24.8336667,50.4634616 23.5744364,52.6604286 18.6239213,53.4368437 C19.2003843,54.5922678 21.2741039,56.7696148 23.8150035,58.5313046 C27.7888238,61.2864858 32.4553042,62.9517863 37.3572663,62.9517863 C42.2592275,62.9517863 46.9257061,61.2864847 50.8995269,58.5313014 C53.3906006,56.8041564 55.4326399,54.6774942 56.05498,53.5059781 C51.2739229,53.2392654 48.9931703,50.1203948 48.6862793,43.6711769 C48.6738466,43.4099089 48.6716879,42.9038408 48.6795113,42.1455491 Z" id="Rectangle-32" stroke="#454F65" fill="#FFFFFF"></path>
                        <path d="M37.3506736,49.5145258 C41.5960557,49.5145258 45.4020042,48.4617717 48.7685192,46.3562634 L48.5501221,43.0833333 L44.169247,46.8268441 L39.7312678,48.6338488 L35.1693975,48.6338488 L28.7222222,45.3351302 C32.4677749,48.1213939 35.3439254,49.5145258 37.3506736,49.5145258 Z" id="Path-7" fill-opacity="0.150000006" fill="#454F65"></path>
                        <path d="M20.555794,24.3196673 L52.8752949,25.5971018 C54.7084532,20.5453522 55.6388889,16.5199923 55.6388889,13.8018895 C55.6388889,11.8818761 54.4118041,8.87577848 52.324545,6.43486033 C49.5741493,3.2184456 45.6240695,1.12602373 40.5173358,0.676024058 C32.9533942,0.00949797114 28.376469,1.23965448 26.7232082,4.25544237 L26.58611,4.5055294 L26.3010608,4.51482294 C23.4808586,4.60677077 21.7669712,6.05276336 21.0618917,8.94970796 C20.0735006,13.0106893 19.7208708,20.9004213 20.555794,24.3196673 Z" id="Path-6" stroke="#454F65" fill="#BBD2F6"></path>
                        <path d="M36.5516676,49.5085708 C40.9074939,49.5085708 46.9660215,45.3064258 50.3199584,39.6381702 C52.0666261,36.6862483 53.0200018,33.4929043 53.0200018,30.2660234 C53.0200018,29.8030623 53.0210776,29.4129179 53.0238935,28.6775833 C53.0467995,22.6958652 52.8595913,21.0327993 51.6967778,19.4080246 C50.3702308,17.5544686 47.6405315,16.4075181 41.7431383,15.2339047 C41.3782022,15.1612805 40.9988367,15.0880582 40.6037814,15.01396 C40.2949845,14.9560407 39.8592749,14.9056665 39.1805866,14.8455554 C39.1288109,14.8409697 37.3455074,14.6928652 36.7533529,14.636841 C35.6955262,14.5367592 34.7781938,14.4266876 33.9015119,14.2867082 C30.6065504,13.7606032 28.2842326,12.8688492 27.0483956,11.3485334 C26.4856509,10.6562499 25.8593097,10.8690279 24.9500426,12.072822 C24.1464237,13.1367468 23.3129275,14.8182524 22.5775577,16.714376 C21.0207463,20.728556 20.0833333,25.3222224 20.0833333,30.2660234 C20.0833333,33.6653264 21.1417497,37.0270338 23.0657217,40.1020921 C26.4698709,45.5428972 32.3305389,49.5085708 36.5516676,49.5085708 Z" id="Oval-15" stroke="#454F65" fill="#FFFFFF"></path>
                        <path d="M26.4135961,11.556503 C27.3789454,13.457065 28.9172675,14.6697652 31.0285625,15.1946034 C36.269715,16.4974802 39.7544278,16.5031818 45.1555937,18.9305556 C48.1166119,19.9349298 50.4844483,22.3030997 52.259103,26.0350652 C52.3071569,24.9910192 52.3071569,24.0606168 52.259103,23.2438582 C52.1870221,22.0187202 51.5473656,17.5993119 43.9010238,16.145871 C38.8034625,15.1769104 32.97432,13.6471211 26.4135961,11.556503 Z" id="Path-4" fill-opacity="0.150000006" fill="#454F65"></path>
                    </g>
                </g>
            </g>
        </g>
    </g>
</svg>