<?xml version="1.0" encoding="utf-8"?>
<!-- Generator: Adobe Illustrator 23.0.1, SVG Export Plug-In . SVG Version: 6.00 Build 0)  -->
<svg version="1.1" id="Layer_1" xmlns="http://www.w3.org/2000/svg" xmlns:xlink="http://www.w3.org/1999/xlink" x="0px" y="0px"
	 viewBox="0 0 360 202.5" style="enable-background:new 0 0 360 202.5;" xml:space="preserve">
<style type="text/css">
	.st0{fill:#4698E4;}
	.st1{fill:#FFFFFF;}
</style>
<g>
	<path class="st0" d="M317.6,151.5H121c-16.4,0-27.4-16.7-21-31.7l19.5-45.5c3.6-8.4,11.9-13.8,21-13.8h196.6
		c16.4,0,27.4,16.7,21,31.7l-19.5,45.5C335,146,326.8,151.5,317.6,151.5z"/>
	<g>
		<path class="st1" d="M25.5,119.4l-13.3-18.6v32.5H0V80.9h10.7l16.3,22.2l16.5-22.2h10.7v52.4H42.1v-32.4l-13.5,18.5L25.5,119.4
			L25.5,119.4z"/>
		<path class="st1" d="M103.6,93.4L80.3,147H67.4l7.6-16.2L58.8,93.4H72l8.7,21.3l0.7,2.5l9.5-23.7L103.6,93.4z"/>
	</g>
	<g>
		<path class="st1" d="M147.7,116.2H140v17.1h-12.2V80.9h23c2.7,0,5.3,0.4,7.6,1.3c2.3,0.9,4.3,2.1,6,3.6c1.7,1.6,3,3.4,3.9,5.6
			c0.9,2.2,1.4,4.6,1.4,7.2c0,1.8-0.2,3.6-0.7,5.2c-0.5,1.6-1.1,3.1-2,4.4c-0.8,1.3-1.9,2.5-3.1,3.6c-1.2,1-2.6,1.9-4.1,2.6
			l11.1,18.9h-14.1L147.7,116.2z M150.2,105.8c1,0,2-0.2,2.8-0.5c0.9-0.3,1.6-0.8,2.3-1.5c0.7-0.6,1.2-1.4,1.5-2.2
			c0.4-0.9,0.6-1.8,0.6-2.9c0-1.1-0.2-2-0.6-2.9c-0.4-0.9-0.9-1.7-1.5-2.3c-0.7-0.6-1.4-1.1-2.3-1.5s-1.8-0.5-2.8-0.5H140v14.4
			L150.2,105.8L150.2,105.8z"/>
		<path class="st1" d="M214,80.9h12.9l-21.7,52.4h-11l-21.8-52.4h12.9l14.3,36h0.1L214,80.9z"/>
		<path class="st1" d="M226.2,107c0-2.5,0.3-5,1-7.3c0.7-2.3,1.7-4.5,2.9-6.6c1.2-2,2.7-3.9,4.5-5.5s3.7-3.1,5.8-4.3
			c2.1-1.2,4.4-2.1,6.9-2.8c2.4-0.6,5-1,7.6-1c2.6,0,5.2,0.3,7.6,1c2.4,0.6,4.7,1.6,6.9,2.8c2.1,1.2,4.1,2.6,5.8,4.3
			c1.8,1.7,3.2,3.5,4.5,5.5c1.2,2,2.2,4.2,2.9,6.6s1,4.8,1,7.3s-0.3,5-1,7.3c-0.7,2.3-1.7,4.5-2.9,6.6c-1.2,2-2.7,3.9-4.5,5.6
			c-1.8,1.7-3.7,3.1-5.8,4.3c-2.1,1.2-4.4,2.1-6.9,2.8c-2.4,0.7-5,1-7.6,1c-2.6,0-5.2-0.3-7.6-1c-2.4-0.7-4.7-1.6-6.9-2.8
			c-2.1-1.2-4.1-2.6-5.8-4.3c-1.7-1.7-3.2-3.5-4.5-5.6c-1.2-2-2.2-4.2-2.9-6.6C226.6,112,226.2,109.6,226.2,107z M238.4,107.1
			c0,2.4,0.4,4.7,1.3,6.7c0.9,2.1,2,3.8,3.5,5.4c1.5,1.5,3.2,2.7,5.2,3.6c2,0.9,4.2,1.3,6.4,1.3c2.3,0,4.5-0.4,6.5-1.3
			c2-0.9,3.8-2,5.2-3.6c1.5-1.5,2.6-3.3,3.5-5.4c0.9-2.1,1.3-4.3,1.3-6.7s-0.4-4.7-1.3-6.7c-0.9-2.1-2-3.8-3.5-5.4
			c-1.5-1.5-3.2-2.7-5.2-3.6c-2-0.9-4.2-1.3-6.5-1.3c-2.3,0-4.4,0.4-6.4,1.3c-2,0.9-3.8,2-5.2,3.6c-1.5,1.5-2.7,3.3-3.5,5.4
			C238.9,102.4,238.4,104.7,238.4,107.1z"/>
		<path class="st1" d="M299.7,117c0,2.1,0.9,3.9,2.7,5.2s4.3,1.9,7.5,1.9c1.8,0,3.3-0.1,4.5-0.4s2.3-0.6,3-1.1
			c0.8-0.5,1.3-1.1,1.7-1.8c0.4-0.7,0.5-1.5,0.5-2.4c0-1.3-0.3-2.3-0.9-3c-0.6-0.8-1.4-1.4-2.5-1.9c-1.1-0.5-2.4-1-4-1.4
			c-1.6-0.4-3.4-0.9-5.4-1.5c-1-0.2-2.1-0.5-3.3-0.8c-1.2-0.3-2.5-0.7-3.8-1.2c-1.3-0.5-2.5-1-3.8-1.7c-1.2-0.7-2.3-1.5-3.3-2.4
			c-1-1-1.7-2.1-2.3-3.4c-0.6-1.3-0.9-2.8-0.9-4.6c0-2.6,0.4-5,1.3-7.1c0.8-2.1,2.2-3.9,3.9-5.3c1.8-1.5,4-2.6,6.7-3.4
			c2.7-0.8,6-1.2,9.7-1.2c3.1,0,5.8,0.4,8.2,1.2c2.4,0.8,4.4,1.9,6,3.3c1.6,1.4,2.9,3.2,3.7,5.2c0.8,2,1.3,4.3,1.3,6.8h-12.3
			c0-0.8-0.1-1.5-0.4-2.2c-0.3-0.7-0.7-1.4-1.4-1.9c-0.6-0.5-1.5-1-2.5-1.3c-1-0.3-2.3-0.5-3.8-0.5c-1.7,0-3,0.1-4.1,0.4
			c-1.1,0.3-1.9,0.7-2.5,1.2c-0.6,0.5-1,1-1.3,1.7c-0.2,0.6-0.4,1.2-0.4,1.9c0,0.9,0.3,1.7,0.9,2.3c0.6,0.7,1.4,1.2,2.4,1.7
			c1,0.5,2.2,0.9,3.6,1.2c1.4,0.3,2.8,0.6,4.5,0.9c1.8,0.4,3.6,0.9,5.2,1.4c1.7,0.5,3.2,1.1,4.6,1.7c1.4,0.6,2.7,1.4,3.8,2.2
			c1.1,0.8,2.1,1.8,2.9,2.9c0.8,1.1,1.4,2.4,1.9,3.8c0.4,1.4,0.7,3.1,0.7,4.9c0,2.6-0.6,5-1.7,7c-1.1,2-2.7,3.7-4.7,5.1
			c-2,1.4-4.4,2.4-7.1,3.1c-2.7,0.7-5.7,1-8.9,1c-4,0-7.4-0.5-10.2-1.6c-2.8-1-5.1-2.4-6.9-4.1c-1.8-1.7-3-3.6-3.9-5.6
			s-1.2-4.2-1.2-6.3L299.7,117L299.7,117z"/>
	</g>
</g>
</svg>
